<svg xmlns="http://www.w3.org/2000/svg" xmlns:xlink="http://www.w3.org/1999/xlink" width="500" zoomAndPan="magnify" viewBox="0 0 375 149.999998" height="200" preserveAspectRatio="xMidYMid meet" version="1.0"><defs><clipPath id="69dc4a03e1"><path d="M 23.140625 68 L 58 68 L 58 107 L 23.140625 107 Z M 23.140625 68 " clip-rule="nonzero"/></clipPath><clipPath id="dd53c5e5c1"><path d="M 230 119 L 251 119 L 251 146.792969 L 230 146.792969 Z M 230 119 " clip-rule="nonzero"/></clipPath></defs><g clip-path="url(#69dc4a03e1)"><path fill="#1b1464" d="M 27.359375 103.242188 C 24.753906 100.738281 23.460938 97.09375 23.460938 92.3125 C 23.460938 88.257812 24.40625 84.421875 26.289062 80.816406 C 28.171875 77.210938 30.773438 74.3125 34.105469 72.140625 C 37.433594 69.960938 41.128906 68.875 45.191406 68.859375 C 47.847656 68.855469 50.296875 69.289062 52.535156 70.167969 C 54.765625 71.042969 56.273438 72.105469 57.054688 73.351562 C 56.128906 74.710938 55.53125 77.222656 55.257812 80.894531 L 53.570312 81.105469 C 53.675781 79.679688 53.523438 78.351562 53.117188 77.105469 C 52.605469 75.476562 51.675781 74.148438 50.308594 73.109375 C 48.945312 72.074219 47.085938 71.554688 44.730469 71.5625 C 41.488281 71.570312 38.640625 72.566406 36.179688 74.546875 C 33.71875 76.527344 31.820312 79.109375 30.488281 82.285156 C 29.15625 85.457031 28.488281 88.765625 28.480469 92.195312 C 28.480469 96.179688 29.367188 99.136719 31.160156 101.078125 C 32.949219 103.015625 35.410156 103.976562 38.546875 103.972656 C 42.058594 103.964844 45.007812 102.84375 47.382812 100.621094 C 49.757812 98.398438 51.425781 95.617188 52.382812 92.285156 C 53.203125 92.285156 53.78125 92.480469 54.121094 92.882812 C 54.464844 93.28125 54.632812 93.910156 54.632812 94.777344 C 54.632812 96.6875 53.890625 98.582031 52.429688 100.476562 C 50.957031 102.371094 48.9375 103.925781 46.359375 105.144531 C 43.777344 106.363281 40.9375 106.980469 37.832031 106.988281 C 33.46875 107 29.976562 105.753906 27.371094 103.242188 Z M 27.359375 103.242188 " fill-opacity="1" fill-rule="nonzero"/></g><path fill="#1b1464" d="M 86.1875 94.683594 C 86.1875 95.277344 86.082031 95.878906 85.878906 96.507812 C 85.398438 98.035156 84.414062 99.566406 82.933594 101.09375 C 81.449219 102.621094 79.671875 103.886719 77.601562 104.875 C 75.535156 105.871094 73.417969 106.371094 71.230469 106.378906 C 68.808594 106.378906 66.957031 105.753906 65.679688 104.496094 C 64.398438 103.238281 63.761719 101.492188 63.769531 99.277344 C 63.769531 97.367188 64.207031 93.972656 65.089844 89.085938 C 65.960938 84.191406 66.964844 79.125 68.101562 73.871094 C 69.234375 68.617188 70.121094 64.808594 70.777344 62.453125 C 72.554688 55.96875 75.003906 52.722656 78.109375 52.710938 C 79.644531 52.710938 80.785156 53.410156 81.535156 54.835938 C 82.28125 56.25 82.65625 58.054688 82.65625 60.238281 C 82.65625 64.605469 81.296875 69.832031 78.59375 75.925781 C 75.890625 82.015625 72.660156 87.765625 68.902344 93.183594 C 68.625 95.398438 68.488281 97.152344 68.488281 98.4375 C 68.488281 100.378906 68.78125 101.707031 69.378906 102.4375 C 69.976562 103.164062 70.902344 103.523438 72.167969 103.519531 C 73.875 103.519531 75.589844 103.007812 77.3125 101.996094 C 79.039062 100.988281 80.582031 99.675781 81.949219 98.0625 C 83.3125 96.449219 84.335938 94.757812 85.027344 92.988281 C 85.804688 92.988281 86.199219 93.558594 86.199219 94.699219 Z M 72.320312 75.464844 C 71.277344 79.988281 70.410156 84.148438 69.722656 87.925781 C 72.289062 83.378906 74.503906 78.5 76.390625 73.292969 C 78.273438 68.085938 79.21875 63.753906 79.21875 60.289062 C 79.21875 59.214844 79.117188 58.335938 78.914062 57.640625 C 78.710938 56.945312 78.421875 56.605469 78.050781 56.605469 C 77.707031 56.605469 77.359375 57.03125 77 57.882812 C 76.636719 58.734375 76.101562 60.480469 75.378906 63.109375 C 74.378906 66.820312 73.363281 70.941406 72.320312 75.464844 Z M 72.320312 75.464844 " fill-opacity="1" fill-rule="nonzero"/><path fill="#1b1464" d="M 107.476562 95.203125 C 107.476562 96.765625 106.578125 98.402344 104.785156 100.121094 C 102.996094 101.839844 100.777344 103.289062 98.132812 104.457031 C 95.488281 105.625 93.039062 106.214844 90.789062 106.21875 C 88.945312 106.21875 87.375 105.847656 86.082031 105.09375 C 84.789062 104.332031 83.804688 103.480469 83.140625 102.527344 C 82.480469 101.578125 82.144531 100.875 82.144531 100.421875 C 82.378906 99.519531 82.617188 98.449219 82.839844 97.195312 C 83.0625 95.949219 83.226562 95.085938 83.332031 94.59375 C 83.4375 93.96875 83.5625 93.230469 83.71875 92.382812 C 83.878906 91.539062 84.074219 90.554688 84.308594 89.445312 C 84.449219 88.75 85.046875 87.976562 86.101562 87.125 C 87.160156 86.273438 88.367188 85.558594 89.710938 84.980469 C 91.058594 84.402344 92.179688 84.113281 93.066406 84.113281 C 93.8125 84.113281 94.710938 84.316406 95.75 84.730469 C 96.785156 85.144531 97.683594 85.722656 98.433594 86.460938 C 99.179688 87.203125 99.554688 88.082031 99.554688 89.085938 C 99.554688 90.371094 98.933594 91.617188 97.683594 92.835938 C 96.4375 94.054688 94.855469 95.054688 92.945312 95.839844 C 91.035156 96.625 89.160156 97.054688 87.316406 97.132812 L 86.902344 99.316406 C 87 100.390625 87.492188 101.316406 88.386719 102.097656 C 89.273438 102.871094 90.605469 103.257812 92.375 103.257812 C 94.082031 103.257812 95.859375 102.851562 97.722656 102.042969 C 99.582031 101.242188 101.308594 100.136719 102.894531 98.730469 C 104.484375 97.320312 105.722656 95.753906 106.609375 94.015625 C 107.1875 94.292969 107.476562 94.691406 107.476562 95.210938 Z M 90.113281 87.558594 C 89.3125 88.390625 88.804688 89.222656 88.601562 90.054688 L 87.730469 94.789062 C 89.777344 94.644531 91.515625 94.035156 92.953125 92.953125 C 94.390625 91.878906 95.105469 90.605469 95.105469 89.152344 C 95.105469 88.285156 94.855469 87.589844 94.363281 87.070312 C 93.871094 86.554688 93.28125 86.296875 92.597656 86.296875 C 91.746094 86.296875 90.917969 86.71875 90.117188 87.550781 Z M 90.113281 87.558594 " fill-opacity="1" fill-rule="nonzero"/><path fill="#1b1464" d="M 134.082031 94.867188 C 134.082031 96.535156 133.417969 98.277344 132.105469 100.101562 C 130.792969 101.925781 129.160156 103.445312 127.21875 104.667969 C 125.273438 105.886719 123.476562 106.496094 121.84375 106.503906 C 120.542969 106.503906 119.414062 106.128906 118.441406 105.367188 C 117.472656 104.605469 116.78125 103.625 116.375 102.410156 C 115.449219 103.589844 114.339844 104.542969 113.046875 105.25 C 111.75 105.964844 110.59375 106.320312 109.570312 106.324219 C 108.683594 106.324219 107.796875 106.0625 106.914062 105.527344 C 106.027344 104.988281 105.277344 104.304688 104.660156 103.480469 C 104.050781 102.648438 103.722656 101.820312 103.691406 100.988281 C 104.476562 97.453125 105.179688 94.015625 105.804688 90.683594 C 105.941406 89.988281 106.519531 89.117188 107.546875 88.054688 C 108.574219 86.992188 109.800781 86.082031 111.238281 85.316406 C 112.667969 84.546875 114.03125 84.160156 115.332031 84.160156 C 116.527344 84.160156 117.734375 84.515625 118.960938 85.242188 C 119.199219 84.652344 119.386719 84.277344 119.527344 84.121094 C 119.664062 83.964844 119.867188 83.871094 120.140625 83.832031 L 124.59375 83.558594 L 124.742188 83.660156 C 124.335938 84.007812 124.027344 84.390625 123.816406 84.808594 C 123.613281 85.230469 123.425781 85.714844 123.253906 86.265625 C 122.636719 88.382812 122 90.941406 121.351562 93.9375 C 120.699219 96.941406 120.371094 99.007812 120.371094 100.15625 C 120.371094 101.125 120.601562 102.011719 121.0625 102.804688 C 121.519531 103.597656 122.242188 103.996094 123.234375 103.992188 C 124.257812 103.992188 125.445312 103.53125 126.789062 102.625 C 128.136719 101.722656 129.402344 100.457031 130.582031 98.824219 C 131.765625 97.191406 132.625 95.355469 133.175781 93.300781 C 133.792969 93.300781 134.09375 93.820312 134.09375 94.855469 Z M 112.941406 102.46875 C 113.625 101.984375 114.269531 101.320312 114.867188 100.488281 C 115.464844 99.65625 115.882812 98.738281 116.125 97.726562 L 116.945312 93.828125 C 117.5625 90.632812 117.988281 88.539062 118.234375 87.53125 C 117.347656 87.117188 116.410156 86.914062 115.417969 86.914062 C 113.816406 86.914062 112.609375 87.433594 111.808594 88.457031 C 111.007812 89.480469 110.46875 90.632812 110.195312 91.917969 L 108.597656 99.773438 C 108.664062 100.640625 108.972656 101.425781 109.515625 102.136719 C 110.0625 102.84375 110.625 103.199219 111.203125 103.199219 C 111.683594 103.199219 112.261719 102.953125 112.941406 102.464844 Z M 112.941406 102.46875 " fill-opacity="1" fill-rule="nonzero"/><path fill="#1b1464" d="M 159.414062 94.460938 C 159.585938 94.683594 159.667969 94.972656 159.667969 95.320312 C 159.667969 96.257812 159.09375 97.636719 157.949219 99.460938 C 156.800781 101.28125 155.277344 102.894531 153.363281 104.304688 C 151.453125 105.714844 149.332031 106.425781 147.015625 106.429688 C 145.246094 106.429688 143.875 105.996094 142.902344 105.117188 C 141.929688 104.238281 141.445312 103.066406 141.445312 101.609375 C 141.445312 100.746094 141.609375 99.667969 141.9375 98.382812 C 142.265625 97.097656 142.71875 95.484375 143.296875 93.542969 C 143.839844 91.742188 144.285156 90.128906 144.632812 88.703125 C 144.601562 88.496094 144.464844 88.398438 144.226562 88.398438 C 143.75 88.398438 142.828125 89.027344 141.464844 90.277344 C 140.101562 91.53125 138.746094 92.941406 137.414062 94.5 C 136.082031 96.0625 135.261719 97.230469 134.953125 97.992188 C 134.335938 100.796875 133.957031 102.667969 133.820312 103.585938 C 133.679688 104.503906 133.597656 105.015625 133.5625 105.117188 C 133.53125 105.222656 133.492188 105.355469 133.457031 105.503906 C 133.425781 105.664062 133.378906 105.753906 133.328125 105.792969 C 133.273438 105.828125 133.203125 105.847656 133.097656 105.847656 C 132.585938 105.847656 131.785156 105.8125 130.695312 105.75 C 129.605469 105.683594 129.0625 105.578125 129.0625 105.441406 C 129.265625 104.195312 129.796875 101.589844 130.65625 97.636719 C 130.828125 96.664062 130.910156 96.199219 130.910156 96.234375 L 133.230469 84.789062 C 133.261719 84.546875 133.339844 84.402344 133.457031 84.351562 C 133.578125 84.296875 133.824219 84.273438 134.199219 84.273438 C 135.800781 84.273438 136.960938 84.519531 137.679688 85.039062 C 137.644531 85.175781 137.453125 86.035156 137.113281 87.617188 C 136.773438 89.195312 136.273438 91.195312 135.625 93.625 C 137.535156 91.261719 139.503906 89.125 141.515625 87.210938 C 143.53125 85.300781 144.898438 84.34375 145.613281 84.335938 C 145.988281 84.335938 146.746094 84.527344 147.890625 84.902344 C 149.03125 85.28125 149.636719 85.589844 149.707031 85.832031 L 148.78125 89.375 C 147.890625 92.601562 147.21875 95.164062 146.78125 97.074219 C 146.335938 98.980469 146.109375 100.4375 146.109375 101.441406 C 146.109375 103.035156 146.839844 103.828125 148.308594 103.828125 C 149.503906 103.828125 150.808594 103.339844 152.226562 102.382812 C 153.644531 101.425781 154.945312 100.195312 156.121094 98.6875 C 157.300781 97.175781 158.160156 95.65625 158.710938 94.128906 C 159.019531 94.128906 159.257812 94.238281 159.425781 94.460938 Z M 159.414062 94.460938 " fill-opacity="1" fill-rule="nonzero"/><path fill="#1b1464" d="M 173.550781 102.851562 C 170.945312 100.34375 169.644531 96.699219 169.652344 91.917969 C 169.652344 87.867188 170.597656 84.027344 172.480469 80.421875 C 174.363281 76.816406 176.960938 73.917969 180.296875 71.746094 C 183.625 69.570312 187.320312 68.480469 191.378906 68.46875 C 194.039062 68.460938 196.488281 68.894531 198.722656 69.773438 C 200.957031 70.652344 202.464844 71.714844 203.246094 72.960938 C 202.320312 74.316406 201.722656 76.828125 201.449219 80.5 L 199.761719 80.710938 C 199.867188 79.289062 199.714844 77.957031 199.308594 76.710938 C 198.796875 75.085938 197.859375 73.753906 196.5 72.71875 C 195.132812 71.679688 193.277344 71.167969 190.921875 71.175781 C 187.679688 71.183594 184.832031 72.179688 182.371094 74.160156 C 179.910156 76.140625 178.011719 78.722656 176.679688 81.898438 C 175.347656 85.070312 174.679688 88.375 174.671875 91.804688 C 174.671875 95.792969 175.558594 98.75 177.351562 100.691406 C 179.140625 102.625 181.601562 103.589844 184.738281 103.585938 C 188.25 103.578125 191.195312 102.457031 193.574219 100.234375 C 195.949219 98.011719 197.617188 95.230469 198.574219 91.898438 C 199.394531 91.898438 199.972656 92.09375 200.3125 92.496094 C 200.652344 92.894531 200.824219 93.523438 200.824219 94.390625 C 200.824219 96.296875 200.082031 98.195312 198.621094 100.089844 C 197.148438 101.984375 195.128906 103.539062 192.550781 104.757812 C 189.96875 105.976562 187.128906 106.59375 184.023438 106.601562 C 179.660156 106.613281 176.167969 105.367188 173.5625 102.855469 Z M 173.550781 102.851562 " fill-opacity="1" fill-rule="nonzero"/><path fill="#1b1464" d="M 233.460938 87.6875 C 233.460938 88.449219 233.152344 89.214844 232.535156 89.976562 C 231.917969 90.746094 231.066406 91.367188 229.976562 91.859375 C 228.878906 92.351562 227.691406 92.59375 226.394531 92.59375 C 224.582031 92.59375 223.136719 92.132812 222.046875 91.203125 C 220.957031 90.273438 220.382812 89.078125 220.316406 87.621094 C 218.8125 87.765625 217.492188 88.390625 216.34375 89.503906 C 215.203125 90.621094 214.335938 91.96875 213.753906 93.5625 L 213.753906 93.667969 C 213.613281 94.015625 213.53125 94.277344 213.496094 94.449219 C 213.1875 95.558594 212.519531 99.113281 211.488281 105.113281 C 211.457031 105.460938 210.722656 105.636719 209.289062 105.636719 C 207.925781 105.636719 207.242188 105.402344 207.242188 104.914062 C 207.242188 104.640625 207.347656 103.925781 207.550781 102.785156 C 208.167969 99.28125 208.835938 95.644531 209.558594 91.859375 C 210.28125 88.082031 210.726562 85.898438 210.898438 85.300781 C 211.035156 84.785156 211.285156 84.4375 211.640625 84.257812 C 212 84.089844 212.488281 83.996094 213.097656 83.996094 C 214.257812 83.996094 215.242188 84.167969 216.0625 84.507812 C 215.789062 85.308594 215.414062 86.722656 214.933594 88.769531 C 215.890625 87.378906 216.976562 86.273438 218.1875 85.433594 C 219.402344 84.601562 220.636719 84.179688 221.902344 84.171875 C 222.480469 84.171875 222.980469 84.253906 223.386719 84.402344 C 223.792969 84.558594 224.050781 84.738281 224.15625 84.949219 C 224.15625 88.480469 225.429688 90.246094 227.988281 90.238281 C 230.035156 90.238281 231.722656 89.15625 233.058594 87 C 233.335938 87.171875 233.46875 87.398438 233.46875 87.675781 Z M 233.460938 87.6875 " fill-opacity="1" fill-rule="nonzero"/><path fill="#1b1464" d="M 257.039062 94.277344 C 257.039062 95.113281 256.402344 96.480469 255.144531 98.390625 C 253.878906 100.300781 252.335938 102.011719 250.503906 103.523438 C 248.679688 105.039062 246.863281 105.792969 245.050781 105.800781 C 243.683594 105.800781 242.523438 105.367188 241.574219 104.484375 C 240.621094 103.605469 240.121094 102.46875 240.097656 101.078125 C 239.171875 102.363281 238.113281 103.480469 236.917969 104.417969 C 235.726562 105.355469 234.597656 105.828125 233.539062 105.828125 C 232.484375 105.828125 231.375 105.402344 230.210938 104.535156 C 229.050781 103.667969 228.40625 102.769531 228.269531 101.839844 L 231.308594 84.988281 C 231.445312 84.332031 231.667969 83.996094 231.972656 83.996094 C 232.378906 83.996094 233.121094 84.140625 234.195312 84.429688 C 235.273438 84.722656 235.808594 85.007812 235.804688 85.28125 C 235.804688 85.386719 235.644531 86.0625 235.335938 87.308594 C 234.996094 88.765625 234.523438 91 233.921875 94.015625 C 233.316406 97.03125 232.917969 99.203125 232.710938 100.523438 C 232.777344 101.007812 233.027344 101.445312 233.453125 101.847656 C 233.882812 102.246094 234.378906 102.441406 234.964844 102.441406 C 235.953125 102.441406 236.984375 101.839844 238.0625 100.640625 C 239.136719 99.441406 240.035156 97.578125 240.753906 95.046875 C 241.367188 92.929688 242.15625 89.425781 243.121094 84.535156 C 243.1875 84.152344 243.378906 83.964844 243.683594 83.964844 C 244.125 83.964844 244.835938 84.109375 245.804688 84.402344 C 246.777344 84.699219 247.261719 85.011719 247.261719 85.359375 C 246.269531 88.96875 245.429688 92.226562 244.742188 95.144531 C 244.054688 98.054688 243.710938 99.964844 243.710938 100.863281 C 243.710938 101.519531 243.910156 102.074219 244.296875 102.527344 C 244.691406 102.980469 245.261719 103.203125 246.007812 103.199219 C 247.4375 103.199219 249.078125 102.332031 250.925781 100.605469 C 252.769531 98.890625 254.527344 96.460938 256.199219 93.339844 C 256.746094 93.480469 257.019531 93.785156 257.019531 94.273438 Z M 257.039062 94.277344 " fill-opacity="1" fill-rule="nonzero"/><path fill="#1b1464" d="M 291.835938 93.066406 C 292.074219 93.289062 292.191406 93.628906 292.191406 94.074219 C 292.191406 95.117188 291.640625 96.574219 290.550781 98.449219 C 289.453125 100.324219 288.023438 101.976562 286.246094 103.402344 C 284.464844 104.824219 282.574219 105.539062 280.5625 105.546875 C 278.75 105.546875 277.195312 104.996094 275.882812 103.867188 C 274.570312 102.746094 273.914062 101.367188 273.917969 99.734375 C 273.917969 98.835938 274.117188 97.675781 274.511719 96.253906 C 274.902344 94.828125 275.410156 93.183594 276.027344 91.308594 C 276.570312 89.503906 276.878906 88.460938 276.953125 88.1875 C 276.953125 88.082031 276.886719 87.988281 276.75 87.898438 C 276.609375 87.8125 276.472656 87.765625 276.339844 87.765625 C 275.691406 87.765625 274.5625 88.90625 272.960938 91.183594 C 271.355469 93.460938 270.140625 95.394531 269.320312 96.992188 C 268.976562 98.101562 268.359375 100.601562 267.46875 104.484375 C 267.332031 105.074219 267.21875 105.472656 267.132812 105.683594 C 267.046875 105.894531 266.917969 105.996094 266.746094 105.996094 C 266.542969 105.996094 266.125 105.90625 265.492188 105.714844 C 264.863281 105.527344 264.300781 105.296875 263.808594 105.019531 C 263.316406 104.746094 263.066406 104.46875 263.066406 104.1875 C 263.066406 103.734375 263.222656 102.941406 263.53125 101.792969 C 264.320312 98.882812 264.933594 96.527344 265.382812 94.746094 C 265.828125 92.960938 266.308594 90.785156 266.824219 88.214844 C 266.621094 87.9375 266.367188 87.800781 266.058594 87.800781 C 265.546875 87.800781 264.804688 88.351562 263.828125 89.445312 C 262.855469 90.542969 261.8125 91.984375 260.703125 93.765625 C 259.59375 95.558594 258.589844 97.421875 257.703125 99.367188 C 257.085938 101.625 256.574219 103.828125 256.160156 105.976562 C 255.714844 105.976562 254.90625 105.859375 253.734375 105.617188 C 252.558594 105.382812 251.96875 105.117188 251.96875 104.84375 C 251.96875 104.601562 252.136719 103.839844 252.480469 102.554688 L 252.734375 101.203125 C 252.875 100.507812 253.320312 98.421875 254.074219 94.933594 C 254.828125 91.453125 255.648438 88.007812 256.542969 84.605469 C 256.609375 84.292969 256.699219 84.070312 256.796875 83.929688 C 256.902344 83.792969 257.054688 83.722656 257.257812 83.722656 C 257.53125 83.722656 258.25 83.832031 259.402344 84.054688 C 260.566406 84.277344 261.195312 84.441406 261.292969 84.546875 C 260.644531 87.394531 259.921875 90.324219 259.132812 93.339844 C 260.230469 91.296875 261.332031 89.609375 262.441406 88.292969 C 263.550781 86.972656 264.5625 86.023438 265.46875 85.453125 C 266.371094 84.875 267.082031 84.59375 267.59375 84.585938 C 268.03125 84.585938 268.8125 84.804688 269.921875 85.230469 C 271.03125 85.660156 271.582031 85.996094 271.582031 86.238281 C 271.308594 87.90625 270.882812 89.878906 270.296875 92.167969 C 273.886719 86.71875 276.480469 83.988281 278.085938 83.984375 C 278.703125 83.984375 279.519531 84.179688 280.542969 84.574219 C 281.566406 84.96875 282.078125 85.414062 282.078125 85.898438 C 281.703125 87.113281 281.53125 87.683594 281.566406 87.617188 C 280.640625 90.601562 279.929688 93.046875 279.433594 94.953125 C 278.933594 96.863281 278.683594 98.402344 278.683594 99.585938 C 278.683594 101.734375 279.667969 102.804688 281.652344 102.796875 C 283.558594 102.796875 285.371094 101.867188 287.078125 100.03125 C 288.785156 98.1875 290.050781 95.761719 290.871094 92.738281 C 291.277344 92.738281 291.605469 92.847656 291.84375 93.074219 Z M 291.835938 93.066406 " fill-opacity="1" fill-rule="nonzero"/><path fill="#1b1464" d="M 307.769531 55.851562 C 305.703125 56.945312 303.878906 59 302.289062 62 C 300.703125 65.003906 299.273438 69.332031 298.003906 74.984375 C 297.453125 77.453125 296.660156 81.339844 295.609375 86.664062 C 294.558594 91.992188 293.765625 96.265625 293.214844 99.484375 C 293.214844 100.523438 293.417969 101.375 293.824219 102.03125 C 294.230469 102.6875 294.882812 103.015625 295.765625 103.015625 C 297.304688 103.015625 298.492188 102.054688 299.324219 100.140625 C 300.15625 98.226562 300.585938 96.167969 300.585938 93.949219 C 300.585938 92.632812 300.425781 91.355469 300.105469 90.101562 C 299.785156 88.855469 299.351562 87.78125 298.804688 86.882812 C 298.773438 86.535156 299.132812 85.917969 299.882812 85.03125 C 300.628906 84.148438 301.179688 83.667969 301.523438 83.597656 C 302.34375 84.914062 303.109375 85.984375 303.847656 86.816406 C 304.582031 87.648438 305.566406 88.332031 306.8125 88.863281 C 308.058594 89.398438 309.652344 89.664062 311.597656 89.65625 C 314.5625 89.648438 316.8125 88.84375 318.355469 87.25 C 318.527344 87.417969 318.613281 87.628906 318.613281 87.871094 C 318.613281 88.566406 318.210938 89.25 317.40625 89.929688 C 316.605469 90.605469 315.535156 91.164062 314.203125 91.601562 C 312.871094 92.042969 311.472656 92.257812 310.007812 92.265625 C 307.929688 92.265625 306.070312 91.890625 304.429688 91.136719 C 304.738281 92.214844 304.890625 93.335938 304.890625 94.515625 C 304.890625 96.5625 304.441406 98.46875 303.550781 100.238281 C 302.65625 102.011719 301.484375 103.414062 300.011719 104.464844 C 298.542969 105.503906 296.976562 106.03125 295.300781 106.035156 C 294.074219 106.035156 292.914062 105.773438 291.824219 105.242188 C 290.734375 104.710938 289.859375 104.015625 289.21875 103.171875 C 288.566406 102.324219 288.246094 101.464844 288.246094 100.601562 C 288.726562 97.792969 289.472656 93.917969 290.484375 88.972656 C 291.496094 84.027344 292.339844 80.054688 293.03125 77.03125 C 295.15625 67.878906 298.082031 61.058594 301.804688 56.570312 C 305.527344 52.09375 309.726562 49.84375 314.398438 49.832031 C 316.550781 49.832031 318.160156 50.261719 319.234375 51.140625 C 320.304688 52.019531 321.097656 53.28125 321.609375 54.90625 L 321.558594 55.371094 C 320.46875 54.925781 319.457031 54.617188 318.539062 54.445312 C 317.621094 54.277344 316.578125 54.191406 315.421875 54.199219 C 312.382812 54.203125 309.835938 54.761719 307.769531 55.855469 Z M 307.769531 55.851562 " fill-opacity="1" fill-rule="nonzero"/><path fill="#1b1464" d="M 315.410156 105.355469 C 314.351562 104.910156 313.519531 104.332031 312.902344 103.617188 C 312.292969 102.910156 311.984375 102.175781 311.984375 101.40625 C 311.984375 100.710938 312.226562 100.167969 312.699219 99.769531 C 313.179688 99.367188 313.722656 99.132812 314.339844 99.058594 C 314.746094 100.441406 315.355469 101.539062 316.175781 102.332031 C 316.996094 103.125 318 103.523438 319.195312 103.519531 C 320.421875 103.519531 321.433594 103.125 322.214844 102.339844 C 323.003906 101.558594 323.394531 100.648438 323.394531 99.605469 C 323.394531 98.738281 323.140625 97.984375 322.628906 97.347656 C 322.117188 96.710938 321.300781 95.9375 320.171875 95.039062 C 319.011719 94.109375 318.144531 93.277344 317.570312 92.554688 C 316.992188 91.828125 316.703125 90.960938 316.703125 89.957031 C 316.703125 88.847656 317.070312 87.804688 317.804688 86.835938 C 318.539062 85.867188 319.476562 85.089844 320.621094 84.515625 C 321.761719 83.9375 322.898438 83.648438 324.027344 83.648438 C 325.285156 83.648438 326.5 83.945312 327.65625 84.546875 C 328.816406 85.152344 329.394531 85.851562 329.394531 86.644531 C 329.394531 87.027344 329.257812 87.40625 328.988281 87.792969 C 328.710938 88.171875 328.304688 88.488281 327.761719 88.730469 C 327.28125 87.898438 326.78125 87.273438 326.25 86.863281 C 325.71875 86.449219 325.082031 86.238281 324.335938 86.246094 C 323.515625 86.246094 322.800781 86.480469 322.183594 86.953125 C 321.566406 87.425781 321.257812 88.074219 321.257812 88.90625 C 321.257812 89.636719 321.511719 90.304688 322.023438 90.910156 C 322.535156 91.511719 323.316406 92.246094 324.375 93.113281 C 325.632812 94.148438 326.578125 95.050781 327.210938 95.832031 C 327.839844 96.613281 328.152344 97.539062 328.152344 98.613281 C 328.152344 99.828125 327.714844 101.007812 326.839844 102.15625 C 325.96875 103.300781 324.828125 104.234375 323.410156 104.941406 C 321.992188 105.648438 320.480469 106.015625 318.882812 106.015625 C 317.621094 106.015625 316.460938 105.800781 315.402344 105.347656 Z M 315.410156 105.355469 " fill-opacity="1" fill-rule="nonzero"/><path fill="#1b1464" d="M 114.933594 139.21875 C 114.578125 139.21875 114.339844 138.984375 114.339844 138.621094 L 114.339844 113.105469 C 114.339844 112.746094 114.578125 112.507812 114.933594 112.507812 L 124.972656 112.507812 C 130.753906 112.507812 133.03125 115.402344 133.03125 119.144531 C 133.03125 121.855469 131.796875 124.128906 128.621094 124.726562 L 128.621094 125.125 C 132.636719 125.605469 134.460938 128 134.460938 131.722656 C 134.460938 136.328125 131.816406 139.21875 124.519531 139.21875 Z M 120.675781 122.632812 L 124.382812 122.632812 C 126.582031 122.632812 127.144531 121.980469 127.144531 120.367188 C 127.144531 118.753906 126.515625 118.175781 124.382812 118.175781 L 120.675781 118.175781 L 120.675781 122.640625 Z M 120.675781 133.558594 L 124.769531 133.558594 C 127.257812 133.558594 128.140625 132.601562 128.140625 130.6875 C 128.140625 128.773438 127.183594 127.933594 124.769531 127.933594 L 120.675781 127.933594 Z M 120.675781 133.558594 " fill-opacity="1" fill-rule="nonzero"/><path fill="#1b1464" d="M 157.675781 136.542969 L 157.675781 137.421875 C 157.675781 139.152344 156.242188 139.515625 155.011719 139.515625 C 152.890625 139.515625 150.835938 138.476562 150.835938 135.847656 L 150.835938 135.75 L 150.324219 135.75 C 149.8125 137.527344 148.265625 139.71875 144.523438 139.71875 L 143.546875 139.71875 C 139.976562 139.71875 137.332031 137.78125 137.332031 133.71875 C 137.332031 130.269531 139.234375 128.234375 143.644531 127.941406 L 150.234375 127.5 L 150.234375 126.679688 C 150.234375 124.550781 149.550781 123.992188 147.136719 123.992188 C 145.015625 123.992188 144.234375 124.429688 144.019531 125.507812 C 143.976562 125.722656 143.839844 125.886719 143.484375 125.886719 L 138.839844 125.886719 C 138.484375 125.886719 138.25 125.691406 138.230469 125.289062 C 138.25 120.648438 142.09375 119.09375 147.304688 119.09375 C 153.855469 119.09375 156.203125 121.546875 156.203125 127.085938 L 156.203125 132.667969 C 156.203125 134.359375 156.480469 134.582031 156.914062 135.003906 C 157.367188 135.421875 157.679688 135.660156 157.679688 136.554688 Z M 146.320312 135.113281 C 148.382812 135.113281 150.226562 133.980469 150.226562 131.886719 L 150.226562 131.171875 L 145.046875 131.59375 C 143.753906 131.710938 143.28125 132.414062 143.28125 133.304688 C 143.28125 134.195312 143.734375 135.121094 145.789062 135.121094 L 146.320312 135.121094 Z M 146.320312 135.113281 " fill-opacity="1" fill-rule="nonzero"/><path fill="#1b1464" d="M 181.011719 138.496094 C 181.328125 138.898438 181.128906 139.210938 180.65625 139.210938 L 175.183594 139.210938 C 174.867188 139.210938 174.671875 139.113281 174.476562 138.851562 L 169.238281 132.050781 L 167.511719 133.984375 L 167.511719 138.609375 C 167.511719 138.96875 167.277344 139.207031 166.921875 139.207031 L 161.980469 139.207031 C 161.625 139.207031 161.390625 138.96875 161.390625 138.609375 L 161.390625 111.898438 C 161.390625 111.539062 161.625 111.304688 161.980469 111.304688 L 166.921875 111.304688 C 167.277344 111.304688 167.511719 111.546875 167.511719 111.898438 L 167.511719 126.332031 L 173.082031 119.796875 C 173.28125 119.558594 173.496094 119.472656 173.765625 119.472656 L 179.625 119.472656 C 180.140625 119.472656 180.277344 119.835938 179.941406 120.1875 L 172.898438 128.003906 L 181 138.492188 Z M 181.011719 138.496094 " fill-opacity="1" fill-rule="nonzero"/><path fill="#1b1464" d="M 201.800781 131.246094 L 189.996094 131.246094 C 190.351562 133.636719 192.542969 134.871094 195.371094 134.871094 C 196.859375 134.871094 198.210938 134.511719 199.296875 134.03125 C 200.035156 133.671875 200.390625 133.757812 201.277344 134.871094 C 202.15625 136.027344 202.292969 136.542969 201.574219 137.304688 C 200.28125 138.601562 197.863281 139.71875 194.648438 139.71875 C 188.296875 139.71875 184.160156 135.496094 184.160156 129.390625 C 184.160156 123.285156 188.238281 119.085938 194.261719 119.085938 C 200.285156 119.085938 203.769531 123.25 203.769531 129.09375 C 203.769531 130.550781 203.515625 131.246094 201.808594 131.246094 Z M 190.210938 127.257812 L 198.3125 127.257812 C 197.878906 125.164062 196.328125 124.328125 194.3125 124.308594 C 192.214844 124.289062 190.703125 125.183594 190.21875 127.257812 Z M 190.210938 127.257812 " fill-opacity="1" fill-rule="nonzero"/><path fill="#1b1464" d="M 227.765625 126.28125 C 227.765625 128.59375 226.84375 129.230469 225.644531 129.230469 L 222.761719 129.230469 C 222.210938 129.230469 221.84375 128.996094 221.804688 128.410156 C 221.648438 125.402344 219.765625 124.84375 218.214844 124.84375 C 215.867188 124.84375 214.140625 126.183594 214.140625 130.328125 L 214.140625 138.617188 C 214.140625 138.976562 213.902344 139.210938 213.550781 139.210938 L 208.609375 139.210938 C 208.253906 139.210938 208.015625 138.976562 208.015625 138.617188 L 208.015625 120.078125 C 208.015625 119.714844 208.253906 119.480469 208.609375 119.480469 L 213.390625 119.480469 C 213.746094 119.480469 213.941406 119.722656 213.984375 120.078125 L 214.140625 123.605469 L 215 123.605469 C 215.769531 121.113281 217.820312 119.082031 221.117188 119.082031 C 225.367188 119.082031 227.765625 122.492188 227.765625 126.273438 Z M 227.765625 126.28125 " fill-opacity="1" fill-rule="nonzero"/><g clip-path="url(#dd53c5e5c1)"><path fill="#1b1464" d="M 250.292969 119.488281 C 250.726562 119.488281 250.925781 119.730469 250.765625 120.164062 L 240.960938 146.316406 C 240.84375 146.636719 240.566406 146.792969 240.253906 146.792969 L 235.3125 146.792969 C 234.878906 146.792969 234.679688 146.558594 234.839844 146.117188 L 237.464844 139.304688 L 230.171875 120.167969 C 230.015625 119.730469 230.210938 119.492188 230.644531 119.492188 L 235.585938 119.492188 C 235.902344 119.492188 236.179688 119.652344 236.296875 119.972656 L 240.46875 132.148438 L 244.644531 119.972656 C 244.761719 119.652344 245.039062 119.492188 245.351562 119.492188 L 250.292969 119.492188 Z M 250.292969 119.488281 " fill-opacity="1" fill-rule="nonzero"/></g><path fill="#603813" d="M 175.917969 4.757812 C 189.042969 2.929688 205.582031 7.972656 213.207031 20.269531 C 217.382812 26.996094 218.746094 37.042969 212.78125 42.996094 C 208.140625 47.628906 211.746094 43.0625 211.671875 36.9375 C 211.429688 17.265625 193.519531 7.113281 176.714844 10.515625 C 173.058594 11.257812 170.523438 13.027344 170.175781 13.101562 C 169.246094 13.296875 162.617188 12.878906 158.566406 14.1875 C 163.246094 9.507812 169.441406 5.664062 175.925781 4.757812 Z M 175.917969 4.757812 " fill-opacity="1" fill-rule="nonzero"/><path fill="#603813" d="M 180.5 12.628906 C 196.203125 11.160156 211.566406 22.679688 208.667969 40.789062 C 207.992188 45.03125 204.703125 51.261719 200.691406 52.289062 C 203.84375 45.179688 200.84375 37.777344 200.902344 36.996094 C 200.941406 36.453125 204.144531 33.003906 201.035156 26.664062 C 197.660156 19.789062 188.742188 19.21875 187.613281 18.832031 C 187.214844 18.695312 183.480469 16.164062 180.046875 15.027344 C 177.09375 14.050781 173.15625 14.28125 176.28125 13.34375 C 177.382812 13.007812 179.34375 12.738281 180.5 12.636719 Z M 180.5 12.628906 " fill-opacity="1" fill-rule="nonzero"/><path fill="#603813" d="M 162.234375 15.984375 C 180.875 13.027344 199.230469 26.664062 199.734375 43.960938 C 200.199219 59.746094 184.554688 64.925781 172.316406 60.9375 C 161.875 57.542969 175.472656 61.109375 180.421875 52.976562 C 185.46875 44.695312 179.195312 34.480469 170.675781 33.070312 C 158.285156 31.023438 155.421875 45.21875 162.664062 50.164062 C 169.613281 54.90625 177.171875 48.859375 175.867188 45.527344 C 172.984375 42.769531 174.664062 49.773438 167.472656 49.199219 C 158.082031 48.460938 159.445312 32.117188 172.097656 36.195312 C 181.726562 39.300781 182.632812 54.183594 170.773438 56.082031 C 157.890625 58.140625 148.105469 43.8125 154.734375 33.148438 C 163.082031 19.710938 192.199219 27.605469 190.09375 48.675781 C 189.472656 54.90625 184.523438 58.144531 184.660156 58.714844 C 189.726562 58.933594 192.746094 51.855469 192.824219 46.992188 C 193.082031 30.394531 176.292969 21.113281 162.394531 24.578125 C 147.960938 28.175781 145.972656 46.992188 157.746094 55.652344 C 163.257812 58.238281 160.910156 58.09375 156.605469 56.808594 C 133.496094 49.902344 139.128906 19.652344 162.234375 15.980469 Z M 162.234375 15.984375 " fill-opacity="1" fill-rule="nonzero"/><path fill="#603813" d="M 192.128906 22.621094 C 196.539062 24.183594 200.089844 28.214844 199.742188 33.3125 C 198.035156 29.167969 195.140625 25.777344 192.128906 22.621094 Z M 192.128906 22.621094 " fill-opacity="1" fill-rule="nonzero"/></svg>